<?xml version="1.0" encoding="iso-8859-1"?>
<!DOCTYPE svg PUBLIC "-//W3C//DTD SVG 1.1//EN" "http://www.w3.org/Graphics/SVG/1.1/DTD/svg11.dtd">
<svg fill="#000000" version="1.1" id="Capa_1" xmlns="http://www.w3.org/2000/svg" xmlns:xlink="http://www.w3.org/1999/xlink" 
     width="800px" height="800px" viewBox="0 0 97.75 97.75" xml:space="preserve">
<g>
    <path d="M48.875,0C21.883,0,0,21.883,0,48.875S21.883,97.75,48.875,97.75S97.75,75.867,97.75,48.875S75.867,0,48.875,0z
         M48.875,85.75c-1.539,0-3.078-0.513-4.231-1.539c-9.757-8.73-28.886-26.01-31.091-36.916
         c-1.539-7.577,0.77-15.669,6.693-20.925c4.872-4.359,11.565-6.181,17.874-4.872c3.334,0.77,6.437,2.309,8.746,4.359
         c2.309-2.052,5.411-3.591,8.746-4.359c6.309-1.309,13.002,0.513,17.874,4.872c5.923,5.256,8.232,13.348,6.693,20.925
         c-2.205,10.906-21.334,28.186-31.091,36.916C51.953,85.237,50.414,85.75,48.875,85.75z"/>
</g>
</svg>